dataset
version=1
nRows=30
nColumns=39
inDegrees=no
endheader
time	sternoclavicular_r2	sternoclavicular_r3	unrotscap_r3	unrotscap_r2	acromioclavicular_r2	acromioclavicular_r3	acromioclavicular_r1	unrothum_r1	unrothum_r3	unrothum_r2	elv_angle	shoulder_elv	shoulder1_r2	shoulder_rot	elbow_flexion	pro_sup	deviation	flexion	cmc_abduction	cmc_flexion	mp_flexion	ip_flexion	mcp2_flexion	mcp2_abduction	pm2_flexion	md2_flexion	mcp3_flexion	mcp3_abduction	pm3_flexion	md3_flexion	mcp4_flexion	mcp4_abduction	pm4_flexion	md4_flexion	mcp5_flexion	mcp5_abduction	pm5_flexion	md5_flexion
3.040000	-0.032145	-0.524191	0.363642	0.208070	0.132388	0.390034	-0.177335	0.135462	-0.035045	0.114259	0.110784	0.027437	0.146525	0.146525	1.641448	2.815771	0.000000	0.000000	0.000000	0.000000	0.000000	0.000000	0.000000	0.000000	0.000000	0.000000	0.000000	0.000000	0.000000	0.000000	0.000000	0.000000	0.000000	0.000000	0.000000	0.000000	0.000000	0.000000
3.045000	-0.032222	-0.525024	0.364726	0.208854	0.133135	0.390239	-0.178143	0.136575	-0.035180	0.115171	0.111802	0.027437	0.146525	0.146525	1.632775	2.832348	0.000000	0.000000	0.000000	0.000000	0.000000	0.000000	0.000000	0.000000	0.000000	0.000000	0.000000	0.000000	0.000000	0.000000	0.000000	0.000000	0.000000	0.000000	0.000000	0.000000	0.000000	0.000000
3.050000	-0.032299	-0.525855	0.365793	0.209632	0.133877	0.390432	-0.178937	0.137683	-0.035318	0.116077	0.112812	0.027437	0.146525	0.146525	1.624220	2.849114	0.000000	0.000000	0.000000	0.000000	0.000000	0.000000	0.000000	0.000000	0.000000	0.000000	0.000000	0.000000	0.000000	0.000000	0.000000	0.000000	0.000000	0.000000	0.000000	0.000000	0.000000	0.000000
3.055000	-0.032377	-0.526682	0.366841	0.210403	0.134615	0.390615	-0.179718	0.138785	-0.035458	0.116977	0.113815	0.027437	0.146525	0.146525	1.615785	2.866059	0.000000	0.000000	0.000000	0.000000	0.000000	0.000000	0.000000	0.000000	0.000000	0.000000	0.000000	0.000000	0.000000	0.000000	0.000000	0.000000	0.000000	0.000000	0.000000	0.000000	0.000000	0.000000
3.060000	-0.032456	-0.527505	0.367870	0.211166	0.135348	0.390786	-0.180485	0.139880	-0.035600	0.117869	0.114811	0.027437	0.146525	0.146525	1.607469	2.883173	0.000000	0.000000	0.000000	0.000000	0.000000	0.000000	0.000000	0.000000	0.000000	0.000000	0.000000	0.000000	0.000000	0.000000	0.000000	0.000000	0.000000	0.000000	0.000000	0.000000	0.000000	0.000000
3.065000	-0.032536	-0.528323	0.368879	0.211923	0.136076	0.390945	-0.181236	0.140967	-0.035743	0.118755	0.115797	0.027437	0.146525	0.146525	1.599273	2.900446	0.000000	0.000000	0.000000	0.000000	0.000000	0.000000	0.000000	0.000000	0.000000	0.000000	0.000000	0.000000	0.000000	0.000000	0.000000	0.000000	0.000000	0.000000	0.000000	0.000000	0.000000	0.000000
3.070000	-0.032618	-0.529135	0.369866	0.212671	0.136798	0.391092	-0.181972	0.142045	-0.035888	0.119632	0.116775	0.027437	0.146525	0.146525	1.591196	2.917866	0.000000	0.000000	0.000000	0.000000	0.000000	0.000000	0.000000	0.000000	0.000000	0.000000	0.000000	0.000000	0.000000	0.000000	0.000000	0.000000	0.000000	0.000000	0.000000	0.000000	0.000000	0.000000
3.075000	-0.032700	-0.529940	0.370831	0.213412	0.137515	0.391228	-0.182690	0.143112	-0.036034	0.120502	0.117743	0.027437	0.146525	0.146525	1.583240	2.935423	0.000000	0.000000	0.000000	0.000000	0.000000	0.000000	0.000000	0.000000	0.000000	0.000000	0.000000	0.000000	0.000000	0.000000	0.000000	0.000000	0.000000	0.000000	0.000000	0.000000	0.000000	0.000000
3.080000	-0.032784	-0.530737	0.371773	0.214144	0.138225	0.391352	-0.183391	0.144166	-0.036180	0.121363	0.118701	0.027437	0.146525	0.146525	1.575403	2.953104	0.000000	0.000000	0.000000	0.000000	0.000000	0.000000	0.000000	0.000000	0.000000	0.000000	0.000000	0.000000	0.000000	0.000000	0.000000	0.000000	0.000000	0.000000	0.000000	0.000000	0.000000	0.000000
3.085000	-0.032869	-0.531525	0.372690	0.214868	0.138930	0.391465	-0.184073	0.145207	-0.036326	0.122216	0.119649	0.027437	0.146525	0.146525	1.567686	2.970898	0.000000	0.000000	0.000000	0.000000	0.000000	0.000000	0.000000	0.000000	0.000000	0.000000	0.000000	0.000000	0.000000	0.000000	0.000000	0.000000	0.000000	0.000000	0.000000	0.000000	0.000000	0.000000
3.090000	-0.032955	-0.532303	0.373582	0.215583	0.139628	0.391566	-0.184736	0.146232	-0.036472	0.123059	0.120585	0.027437	0.146525	0.146525	1.560086	2.988792	0.000000	0.000000	0.000000	0.000000	0.000000	0.000000	0.000000	0.000000	0.000000	0.000000	0.000000	0.000000	0.000000	0.000000	0.000000	0.000000	0.000000	0.000000	0.000000	0.000000	0.000000	0.000000
3.095000	-0.033042	-0.533071	0.374448	0.216289	0.140319	0.391655	-0.185377	0.147241	-0.036616	0.123893	0.121511	0.027437	0.146525	0.146525	1.552605	3.006774	0.000000	0.000000	0.000000	0.000000	0.000000	0.000000	0.000000	0.000000	0.000000	0.000000	0.000000	0.000000	0.000000	0.000000	0.000000	0.000000	0.000000	0.000000	0.000000	0.000000	0.000000	0.000000
3.100000	-0.033131	-0.533827	0.375286	0.216986	0.141004	0.391733	-0.185997	0.148232	-0.036758	0.124717	0.122424	0.027437	0.146525	0.146525	1.545241	3.024832	0.000000	0.000000	0.000000	0.000000	0.000000	0.000000	0.000000	0.000000	0.000000	0.000000	0.000000	0.000000	0.000000	0.000000	0.000000	0.000000	0.000000	0.000000	0.000000	0.000000	0.000000	0.000000
3.105000	-0.033221	-0.534570	0.376096	0.217674	0.141681	0.391799	-0.186594	0.149203	-0.036897	0.125531	0.123325	0.027437	0.146525	0.146525	1.537992	3.042952	0.000000	0.000000	0.000000	0.000000	0.000000	0.000000	0.000000	0.000000	0.000000	0.000000	0.000000	0.000000	0.000000	0.000000	0.000000	0.000000	0.000000	0.000000	0.000000	0.000000	0.000000	0.000000
3.110000	-0.033312	-0.535300	0.376877	0.218352	0.142351	0.391854	-0.187167	0.150154	-0.037034	0.126334	0.124214	0.027437	0.146525	0.146525	1.530859	3.061123	0.000000	0.000000	0.000000	0.000000	0.000000	0.000000	0.000000	0.000000	0.000000	0.000000	0.000000	0.000000	0.000000	0.000000	0.000000	0.000000	0.000000	0.000000	0.000000	0.000000	0.000000	0.000000
3.115000	-0.033405	-0.536016	0.377627	0.219020	0.143014	0.391899	-0.187715	0.151082	-0.037167	0.127126	0.125089	0.027437	0.146525	0.146525	1.523839	3.079331	0.000000	0.000000	0.000000	0.000000	0.000000	0.000000	0.000000	0.000000	0.000000	0.000000	0.000000	0.000000	0.000000	0.000000	0.000000	0.000000	0.000000	0.000000	0.000000	0.000000	0.000000	0.000000
3.120000	-0.033499	-0.536717	0.378345	0.219679	0.143670	0.391932	-0.188238	0.151988	-0.037296	0.127908	0.125951	0.027437	0.146525	0.146525	1.516932	3.097564	0.000000	0.000000	0.000000	0.000000	0.000000	0.000000	0.000000	0.000000	0.000000	0.000000	0.000000	0.000000	0.000000	0.000000	0.000000	0.000000	0.000000	0.000000	0.000000	0.000000	0.000000	0.000000
3.125000	-0.033594	-0.537402	0.379032	0.220328	0.144318	0.391955	-0.188733	0.152869	-0.037419	0.128678	0.126800	0.027437	0.146525	0.146525	1.510137	3.115809	0.000000	0.000000	0.000000	0.000000	0.000000	0.000000	0.000000	0.000000	0.000000	0.000000	0.000000	0.000000	0.000000	0.000000	0.000000	0.000000	0.000000	0.000000	0.000000	0.000000	0.000000	0.000000
3.130000	-0.033691	-0.538071	0.379685	0.220968	0.144958	0.391968	-0.189202	0.153723	-0.037537	0.129436	0.127634	0.027437	0.146525	0.146525	1.503451	3.134054	0.000000	0.000000	0.000000	0.000000	0.000000	0.000000	0.000000	0.000000	0.000000	0.000000	0.000000	0.000000	0.000000	0.000000	0.000000	0.000000	0.000000	0.000000	0.000000	0.000000	0.000000	0.000000
3.135000	-0.033788	-0.538723	0.380304	0.221597	0.145590	0.391972	-0.189641	0.154551	-0.037649	0.130182	0.128454	0.027437	0.146525	0.146525	1.496873	3.152287	0.000000	0.000000	0.000000	0.000000	0.000000	0.000000	0.000000	0.000000	0.000000	0.000000	0.000000	0.000000	0.000000	0.000000	0.000000	0.000000	0.000000	0.000000	0.000000	0.000000	0.000000	0.000000
3.140000	-0.033886	-0.539358	0.380889	0.222216	0.146214	0.391965	-0.190052	0.155351	-0.037755	0.130916	0.129259	0.027437	0.146525	0.146525	1.490403	3.170496	0.000000	0.000000	0.000000	0.000000	0.000000	0.000000	0.000000	0.000000	0.000000	0.000000	0.000000	0.000000	0.000000	0.000000	0.000000	0.000000	0.000000	0.000000	0.000000	0.000000	0.000000	0.000000
3.145000	-0.033986	-0.539974	0.381438	0.222825	0.146831	0.391949	-0.190432	0.156122	-0.037853	0.131637	0.130050	0.027437	0.146525	0.146525	1.484038	3.188668	0.000000	0.000000	0.000000	0.000000	0.000000	0.000000	0.000000	0.000000	0.000000	0.000000	0.000000	0.000000	0.000000	0.000000	0.000000	0.000000	0.000000	0.000000	0.000000	0.000000	0.000000	0.000000
3.150000	-0.034086	-0.540572	0.381952	0.223425	0.147439	0.391925	-0.190781	0.156863	-0.037943	0.132346	0.130826	0.027437	0.146525	0.146525	1.477776	3.206794	0.000000	0.000000	0.000000	0.000000	0.000000	0.000000	0.000000	0.000000	0.000000	0.000000	0.000000	0.000000	0.000000	0.000000	0.000000	0.000000	0.000000	0.000000	0.000000	0.000000	0.000000	0.000000
3.155000	-0.034188	-0.541150	0.382429	0.224014	0.148040	0.391892	-0.191099	0.157573	-0.038024	0.133042	0.131586	0.027437	0.146525	0.146525	1.471617	3.224861	0.000000	0.000000	0.000000	0.000000	0.000000	0.000000	0.000000	0.000000	0.000000	0.000000	0.000000	0.000000	0.000000	0.000000	0.000000	0.000000	0.000000	0.000000	0.000000	0.000000	0.000000	0.000000
3.160000	-0.034289	-0.541709	0.382869	0.224594	0.148632	0.391851	-0.191385	0.158251	-0.038096	0.133726	0.132331	0.027437	0.146525	0.146525	1.465559	3.242860	0.000000	0.000000	0.000000	0.000000	0.000000	0.000000	0.000000	0.000000	0.000000	0.000000	0.000000	0.000000	0.000000	0.000000	0.000000	0.000000	0.000000	0.000000	0.000000	0.000000	0.000000	0.000000
3.165000	-0.034392	-0.542248	0.383271	0.225164	0.149217	0.391802	-0.191637	0.158897	-0.038159	0.134396	0.133061	0.027437	0.146525	0.146525	1.459599	3.260779	0.000000	0.000000	0.000000	0.000000	0.000000	0.000000	0.000000	0.000000	0.000000	0.000000	0.000000	0.000000	0.000000	0.000000	0.000000	0.000000	0.000000	0.000000	0.000000	0.000000	0.000000	0.000000
3.170000	-0.034495	-0.542766	0.383635	0.225724	0.149793	0.391747	-0.191857	0.159509	-0.038211	0.135053	0.133775	0.027437	0.146525	0.146525	1.453737	3.278610	0.000000	0.000000	0.000000	0.000000	0.000000	0.000000	0.000000	0.000000	0.000000	0.000000	0.000000	0.000000	0.000000	0.000000	0.000000	0.000000	0.000000	0.000000	0.000000	0.000000	0.000000	0.000000
3.175000	-0.034598	-0.543264	0.383962	0.226275	0.150362	0.391684	-0.192043	0.160088	-0.038253	0.135697	0.134473	0.027437	0.146525	0.146525	1.447970	3.296342	0.000000	0.000000	0.000000	0.000000	0.000000	0.000000	0.000000	0.000000	0.000000	0.000000	0.000000	0.000000	0.000000	0.000000	0.000000	0.000000	0.000000	0.000000	0.000000	0.000000	0.000000	0.000000
3.180000	-0.034702	-0.543741	0.384250	0.226816	0.150923	0.391616	-0.192195	0.160632	-0.038284	0.136328	0.135156	0.027437	0.146525	0.146525	1.442297	3.313967	0.000000	0.000000	0.000000	0.000000	0.000000	0.000000	0.000000	0.000000	0.000000	0.000000	0.000000	0.000000	0.000000	0.000000	0.000000	0.000000	0.000000	0.000000	0.000000	0.000000	0.000000	0.000000
3.185000	-0.034806	-0.544198	0.384500	0.227348	0.151476	0.391542	-0.192313	0.161143	-0.038303	0.136946	0.135824	0.027437	0.146525	0.146525	1.436716	3.331476	0.000000	0.000000	0.000000	0.000000	0.000000	0.000000	0.000000	0.000000	0.000000	0.000000	0.000000	0.000000	0.000000	0.000000	0.000000	0.000000	0.000000	0.000000	0.000000	0.000000	0.000000	0.000000
